# xmcd
#
# Track frame offsets: 
#        150
#        23227
#        51033
#        72540
#        86982
#        101871
#        117537
#        130283
#        153125
#        262297
#
# Disc length: 3680 seconds
#
# Revision: 0
# Processed by: cddbd v1.5.2PL0 Copyright (c) Steve Scherf et al.
# Submitted via: ExactAudioCopy v0.99pb4
#
DISCID=960e5e0a
DTITLE=Peter Green - Supernatural [CD1]
DYEAR=2007
DGENRE=Blues-Rock
TTITLE0=Green Manalishi (Live)
TTITLE1=Black Magic Woman (Live)
TTITLE2=Jumping At Shadows (Live)
TTITLE3=Supernatural
TTITLE4=Albatross
TTITLE5=World In Harmony (Live)
TTITLE6=Oh Well! (Live)
TTITLE7=Sandy Mary (Live)
TTITLE8=Rattlesnake Shake (Live)
TTITLE9=Man Of The World
EXTD=
EXTT0=
EXTT1=
EXTT2=
EXTT3=
EXTT4=
EXTT5=
EXTT6=
EXTT7=
EXTT8=
EXTT9=
PLAYORDER=
